<svg xmlns="http://www.w3.org/2000/svg" width="820" height="700" viewBox="0 0 820 700"><defs><linearGradient id="gTable" x1="0" y1="0" x2="0" y2="1"><stop offset="0" stop-color="#FBE3EE"/><stop offset="1" stop-color="#F7BAD6"/></linearGradient><linearGradient id="gLeft" x1="0" y1="0" x2="0" y2="1"><stop offset="0" stop-color="#D12C74"/><stop offset="1" stop-color="#E24E8D"/></linearGradient><linearGradient id="gRight" x1="0" y1="0" x2="0" y2="1"><stop offset="0" stop-color="#E24E8D"/><stop offset="1" stop-color="#B81E61"/></linearGradient><linearGradient id="pFar" x1="0" y1="0" x2="0" y2="1"><stop offset="0" stop-color="#B81E61"/><stop offset="1" stop-color="#A01655"/></linearGradient><linearGradient id="pMidL" x1="0" y1="0" x2="0" y2="1"><stop offset="0" stop-color="#F7BAD6"/><stop offset="1" stop-color="#E873A6"/></linearGradient><linearGradient id="pMidR" x1="0" y1="0" x2="0" y2="1"><stop offset="0" stop-color="#E873A6"/><stop offset="1" stop-color="#D12C74"/></linearGradient><linearGradient id="pShine" x1="0" y1="0" x2="0" y2="1"><stop offset="0" stop-color="#ffffff"/><stop offset="1" stop-color="#F7BAD6"/></linearGradient></defs><g transform="translate(190,44) scale(0.7333)"><g><polygon points="190,82 410,82 362,158 238,158" fill="url(#gTable)" fill-opacity="1.0" stroke="#ffffff" stroke-width="1.4" stroke-opacity="0.35" stroke-linejoin="round"/><polygon points="190,82 238,158 58,178" fill="url(#gLeft)" fill-opacity="1.0" stroke="#ffffff" stroke-width="1.4" stroke-opacity="0.35" stroke-linejoin="round"/><polygon points="410,82 542,178 362,158" fill="url(#gRight)" fill-opacity="1.0" stroke="#ffffff" stroke-width="1.4" stroke-opacity="0.35" stroke-linejoin="round"/><polygon points="190,82 238,158 58,178" fill="url(#gLeft)" fill-opacity="0" stroke="#ffffff" stroke-width="1.4" stroke-opacity="0.35" stroke-linejoin="round"/><polygon points="190,82 150,110 58,178" fill="#B81E61" fill-opacity="0.0" stroke="#ffffff" stroke-width="1.4" stroke-opacity="0.35" stroke-linejoin="round"/><polygon points="238,158 58,178 178,178" fill="#E873A6" fill-opacity="0.9" stroke="#ffffff" stroke-width="1.4" stroke-opacity="0.35" stroke-linejoin="round"/><polygon points="238,158 178,178 300,178" fill="#F09EC2" fill-opacity="0.85" stroke="#ffffff" stroke-width="1.4" stroke-opacity="0.35" stroke-linejoin="round"/><polygon points="362,158 300,178 422,178" fill="#E873A6" fill-opacity="0.85" stroke="#ffffff" stroke-width="1.4" stroke-opacity="0.35" stroke-linejoin="round"/><polygon points="362,158 422,178 542,178" fill="#E24E8D" fill-opacity="0.9" stroke="#ffffff" stroke-width="1.4" stroke-opacity="0.35" stroke-linejoin="round"/><polygon points="238,158 300,178 362,158" fill="#F7BAD6" fill-opacity="0.7" stroke="#ffffff" stroke-width="1.4" stroke-opacity="0.35" stroke-linejoin="round"/><polygon points="58,178 178,178 300,470" fill="url(#pFar)" fill-opacity="1.0" stroke="#ffffff" stroke-width="1.4" stroke-opacity="0.35" stroke-linejoin="round"/><polygon points="178,178 300,178 300,470" fill="url(#pMidL)" fill-opacity="1.0" stroke="#ffffff" stroke-width="1.4" stroke-opacity="0.35" stroke-linejoin="round"/><polygon points="300,178 422,178 300,470" fill="url(#pMidR)" fill-opacity="1.0" stroke="#ffffff" stroke-width="1.4" stroke-opacity="0.35" stroke-linejoin="round"/><polygon points="422,178 542,178 300,470" fill="url(#pFar)" fill-opacity="1.0" stroke="#ffffff" stroke-width="1.4" stroke-opacity="0.35" stroke-linejoin="round"/><polygon points="288,178 312,178 300,470" fill="url(#pShine)" fill-opacity="0.55" stroke="#ffffff" stroke-width="1.4" stroke-opacity="0" stroke-linejoin="round"/><path d="M244 212 C240 176 258 150 286 152 C295 153 298 161 300 170 C302 161 305 153 314 152 C342 150 360 176 356 212 C358 246 350 262 348 286 C346 314 339 332 329 332 C320 332 318 313 313 296 C309 285 305 282 300 282 C295 282 291 285 287 296 C282 313 280 332 271 332 C261 332 254 314 252 286 C250 262 242 246 244 212 Z" fill="#ffffff"/><path d="M244 212 C240 176 258 150 286 152 C295 153 298 161 300 170 C302 161 305 153 314 152 C342 150 360 176 356 212 C358 246 350 262 348 286 C346 314 339 332 329 332 C320 332 318 313 313 296 C309 285 305 282 300 282 C295 282 291 285 287 296 C282 313 280 332 271 332 C261 332 254 314 252 286 C250 262 242 246 244 212 Z" fill="none" stroke="#F3C9DC" stroke-width="1.2" stroke-opacity="0.55"/><path d="M350 118 C357.8 140.2 357.8 140.2 380 148 C357.8 155.8 357.8 155.8 350 178 C342.2 155.8 342.2 155.8 320 148 C342.2 140.2 342.2 140.2 350 118 Z" fill="#ffffff"/><path d="M374 182 C377.92 192.08 377.92 192.08 388 196 C377.92 199.92 377.92 199.92 374 210 C370.08 199.92 370.08 199.92 360 196 C370.08 192.08 370.08 192.08 374 182 Z" fill="#ffffff"/></g></g><path d="M657 348Q657 240 613.0 161.5Q569 83 486.0 41.5Q403 0 287 0H80V699H287Q403 699 486.0 657.0Q569 615 613.0 536.0Q657 457 657 348ZM586 348Q586 486 509.5 563.5Q433 641 287 641H150V58H287Q433 58 509.5 134.5Q586 211 586 348Z" transform="translate(85.25,486) scale(0.07800,-0.07800)" fill="#8c8c8c"/><path d="M64 701Q64 723 79.0 737.5Q94 752 115 752Q136 752 151.0 737.5Q166 723 166 701Q166 679 151.0 664.0Q136 649 115 649Q94 649 79.0 664.0Q64 679 64 701ZM150 546V0H80V546Z" transform="translate(141.81,486) scale(0.07800,-0.07800)" fill="#8c8c8c"/><path d="M309 554Q387 554 443.5 518.0Q500 482 525 426V546H595V0H525V121Q499 65 442.5 28.5Q386 -8 308 -8Q234 -8 174.5 27.0Q115 62 81.5 126.0Q48 190 48 274Q48 358 81.5 421.5Q115 485 174.5 519.5Q234 554 309 554ZM322 493Q264 493 218.0 467.0Q172 441 145.5 391.5Q119 342 119 274Q119 207 145.5 156.5Q172 106 218.0 79.5Q264 53 322 53Q378 53 424.5 80.0Q471 107 498.0 157.0Q525 207 525 273Q525 339 498.0 389.0Q471 439 424.5 466.0Q378 493 322 493Z" transform="translate(161.18,486) scale(0.07800,-0.07800)" fill="#8c8c8c"/><path d="M947 320V0H878V312Q878 401 835.0 448.0Q792 495 718 495Q641 495 595.0 444.0Q549 393 549 296V0H480V312Q480 401 437.0 448.0Q394 495 319 495Q242 495 196.0 444.0Q150 393 150 296V0H80V546H150V452Q176 503 224.0 529.5Q272 556 331 556Q402 556 455.5 522.0Q509 488 533 422Q555 487 608.5 521.5Q662 556 730 556Q826 556 886.5 495.5Q947 435 947 320Z" transform="translate(215.33,486) scale(0.07800,-0.07800)" fill="#8c8c8c"/><path d="M48 273Q48 358 84.0 421.5Q120 485 182.0 519.5Q244 554 321 554Q398 554 460.5 519.5Q523 485 558.5 421.5Q594 358 594 273Q594 189 558.0 125.0Q522 61 459.0 26.5Q396 -8 319 -8Q242 -8 180.5 26.5Q119 61 83.5 124.5Q48 188 48 273ZM522 273Q522 345 494.0 394.5Q466 444 420.0 468.5Q374 493 320 493Q266 493 220.0 468.5Q174 444 146.5 394.5Q119 345 119 273Q119 201 146.5 151.5Q174 102 219.5 77.5Q265 53 319 53Q373 53 419.0 77.5Q465 102 493.5 151.5Q522 201 522 273Z" transform="translate(296.54,486) scale(0.07800,-0.07800)" fill="#8c8c8c"/><path d="M558 320V0H489V312Q489 401 444.5 448.0Q400 495 323 495Q244 495 197.0 445.0Q150 395 150 298V0H80V546H150V453Q176 503 225.0 529.5Q274 556 336 556Q434 556 496.0 495.5Q558 435 558 320Z" transform="translate(348.12,486) scale(0.07800,-0.07800)" fill="#8c8c8c"/><path d="M310 554Q382 554 440.0 519.0Q498 484 525 428V740H595V0H525V122Q500 65 443.0 28.5Q386 -8 309 -8Q234 -8 174.5 27.0Q115 62 81.5 126.0Q48 190 48 274Q48 358 82.0 421.5Q116 485 175.5 519.5Q235 554 310 554ZM322 493Q264 493 218.0 467.0Q172 441 145.5 391.5Q119 342 119 274Q119 207 145.5 156.5Q172 106 218.0 79.5Q264 53 322 53Q378 53 424.5 80.0Q471 107 498.0 157.0Q525 207 525 273Q525 339 498.0 389.0Q471 439 424.5 466.0Q378 493 322 493Z" transform="translate(398.99,486) scale(0.07800,-0.07800)" fill="#8c8c8c"/><path d="M657 348Q657 240 613.0 161.5Q569 83 486.0 41.5Q403 0 287 0H80V699H287Q403 699 486.0 657.0Q569 615 613.0 536.0Q657 457 657 348ZM586 348Q586 486 509.5 563.5Q433 641 287 641H150V58H287Q433 58 509.5 134.5Q586 211 586 348Z" transform="translate(476.02,486) scale(0.07800,-0.07800)" fill="#8c8c8c"/><path d="M572 246H119Q122 184 149.0 140.0Q176 96 220.0 73.5Q264 51 316 51Q384 51 430.5 84.0Q477 117 492 173H566Q546 93 480.5 42.5Q415 -8 316 -8Q239 -8 178.0 26.5Q117 61 82.5 124.5Q48 188 48 273Q48 358 82.0 422.0Q116 486 177.0 520.0Q238 554 316 554Q394 554 452.5 520.0Q511 486 542.5 428.5Q574 371 574 301Q574 265 572 246ZM313 494Q235 494 180.0 444.0Q125 394 119 303H503Q504 364 478.5 407.0Q453 450 409.0 472.0Q365 494 313 494Z" transform="translate(532.58,486) scale(0.07800,-0.07800)" fill="#8c8c8c"/><path d="M558 320V0H489V312Q489 401 444.5 448.0Q400 495 323 495Q244 495 197.0 445.0Q150 395 150 298V0H80V546H150V453Q176 503 225.0 529.5Q274 556 336 556Q434 556 496.0 495.5Q558 435 558 320Z" transform="translate(582.60,486) scale(0.07800,-0.07800)" fill="#8c8c8c"/><path d="M171 487V148Q171 98 190.0 79.0Q209 60 257 60H321V0H246Q172 0 136.0 34.5Q100 69 100 148V487H24V546H100V683H171V546H321V487Z" transform="translate(633.47,486) scale(0.07800,-0.07800)" fill="#8c8c8c"/><path d="M309 554Q387 554 443.5 518.0Q500 482 525 426V546H595V0H525V121Q499 65 442.5 28.5Q386 -8 308 -8Q234 -8 174.5 27.0Q115 62 81.5 126.0Q48 190 48 274Q48 358 81.5 421.5Q115 485 174.5 519.5Q234 554 309 554ZM322 493Q264 493 218.0 467.0Q172 441 145.5 391.5Q119 342 119 274Q119 207 145.5 156.5Q172 106 218.0 79.5Q264 53 322 53Q378 53 424.5 80.0Q471 107 498.0 157.0Q525 207 525 273Q525 339 498.0 389.0Q471 439 424.5 466.0Q378 493 322 493Z" transform="translate(662.74,486) scale(0.07800,-0.07800)" fill="#8c8c8c"/><path d="M150 740V0H80V740Z" transform="translate(716.89,486) scale(0.07800,-0.07800)" fill="#8c8c8c"/><path d="M928 699 730 0H652L476 596L296 0L220 -1L26 699H101L261 86L440 699H518L692 86L853 699Z" transform="translate(135.10,532) scale(0.02550,-0.02550)" fill="#adadad"/><path d="M150 642V381H415V323H150V58H445V0H80V700H445V642Z" transform="translate(165.65,532) scale(0.02550,-0.02550)" fill="#adadad"/><path d="M763 690V0H693V551L447 0H396L150 549V0H80V690H154L421 92L688 690Z" transform="translate(197.87,532) scale(0.02550,-0.02550)" fill="#adadad"/><path d="M485 166H167L106 0H32L287 690H366L620 0H546ZM464 224 326 602 188 224Z" transform="translate(225.54,532) scale(0.02550,-0.02550)" fill="#adadad"/><path d="M453 0 150 323V0H80V699H150V372L453 699H542L215 350L545 0Z" transform="translate(248.36,532) scale(0.02550,-0.02550)" fill="#adadad"/><path d="M150 642V381H415V323H150V58H445V0H80V700H445V642Z" transform="translate(269.05,532) scale(0.02550,-0.02550)" fill="#adadad"/><path d="M489 699V641H295V0H225V641H30V699Z" transform="translate(301.26,532) scale(0.02550,-0.02550)" fill="#adadad"/><path d="M147 699V259Q147 155 196.5 105.0Q246 55 332 55Q418 55 466.5 104.5Q515 154 515 259V699H585V260Q585 127 514.5 60.0Q444 -7 331 -7Q218 -7 147.5 60.0Q77 127 77 260V699Z" transform="translate(320.72,532) scale(0.02550,-0.02550)" fill="#adadad"/><path d="M150 57H401V0H80V699H150Z" transform="translate(343.78,532) scale(0.02550,-0.02550)" fill="#adadad"/><path d="M56 180H130Q135 129 175.0 90.5Q215 52 292 52Q363 52 404.5 88.5Q446 125 446 181Q446 226 423.0 253.5Q400 281 366.0 294.5Q332 308 272 324Q202 343 161.0 361.0Q120 379 91.0 417.0Q62 455 62 520Q62 574 90.0 616.5Q118 659 169.0 683.0Q220 707 286 707Q383 707 442.5 659.5Q502 612 511 537H435Q428 580 388.0 613.5Q348 647 280 647Q217 647 175.0 613.5Q133 580 133 522Q133 478 156.0 451.0Q179 424 213.5 410.0Q248 396 307 380Q375 361 417.0 342.5Q459 324 488.0 286.0Q517 248 517 184Q517 135 491.0 91.0Q465 47 414.0 20.0Q363 -7 292 -7Q223 -7 170.5 17.0Q118 41 88.0 84.0Q58 127 56 180Z" transform="translate(360.71,532) scale(0.02550,-0.02550)" fill="#adadad"/><path d="M485 166H167L106 0H32L287 690H366L620 0H546ZM464 224 326 602 188 224Z" transform="translate(381.50,532) scale(0.02550,-0.02550)" fill="#adadad"/><path d="M56 180H130Q135 129 175.0 90.5Q215 52 292 52Q363 52 404.5 88.5Q446 125 446 181Q446 226 423.0 253.5Q400 281 366.0 294.5Q332 308 272 324Q202 343 161.0 361.0Q120 379 91.0 417.0Q62 455 62 520Q62 574 90.0 616.5Q118 659 169.0 683.0Q220 707 286 707Q383 707 442.5 659.5Q502 612 511 537H435Q428 580 388.0 613.5Q348 647 280 647Q217 647 175.0 613.5Q133 580 133 522Q133 478 156.0 451.0Q179 424 213.5 410.0Q248 396 307 380Q375 361 417.0 342.5Q459 324 488.0 286.0Q517 248 517 184Q517 135 491.0 91.0Q465 47 414.0 20.0Q363 -7 292 -7Q223 -7 170.5 17.0Q118 41 88.0 84.0Q58 127 56 180Z" transform="translate(417.51,532) scale(0.02550,-0.02550)" fill="#adadad"/><path d="M763 690V0H693V551L447 0H396L150 549V0H80V690H154L421 92L688 690Z" transform="translate(438.30,532) scale(0.02550,-0.02550)" fill="#adadad"/><path d="M150 699V0H80V699Z" transform="translate(465.97,532) scale(0.02550,-0.02550)" fill="#adadad"/><path d="M150 57H401V0H80V699H150Z" transform="translate(478.01,532) scale(0.02550,-0.02550)" fill="#adadad"/><path d="M150 642V381H415V323H150V58H445V0H80V700H445V642Z" transform="translate(494.94,532) scale(0.02550,-0.02550)" fill="#adadad"/><path d="M548 187Q548 134 521.5 91.5Q495 49 444.0 24.5Q393 0 322 0H80V699H315Q421 699 476.5 650.0Q532 601 532 523Q532 458 497.0 417.5Q462 377 407 361Q466 350 507.0 301.0Q548 252 548 187ZM150 390H313Q384 390 422.5 423.5Q461 457 461 516Q461 574 422.5 607.0Q384 640 310 640H150ZM478 194Q478 257 433.5 294.5Q389 332 314 332H150V59H317Q393 59 435.5 95.0Q478 131 478 194Z" transform="translate(527.16,532) scale(0.02550,-0.02550)" fill="#adadad"/><path d="M452 0 279 292H150V0H80V699H290Q407 699 467.5 643.0Q528 587 528 496Q528 420 484.5 366.5Q441 313 356 297L536 0ZM150 349H291Q373 349 414.5 389.0Q456 429 456 496Q456 565 416.0 602.5Q376 640 290 640H150Z" transform="translate(548.58,532) scale(0.02550,-0.02550)" fill="#adadad"/><path d="M150 699V0H80V699Z" transform="translate(569.75,532) scale(0.02550,-0.02550)" fill="#adadad"/><path d="M630 495Q600 564 538.5 603.5Q477 643 394 643Q316 643 254.0 607.0Q192 571 156.0 504.5Q120 438 120 350Q120 262 156.0 195.0Q192 128 254.0 92.0Q316 56 394 56Q467 56 525.5 87.5Q584 119 619.5 177.5Q655 236 660 314H366V371H734V320Q729 228 684.0 153.5Q639 79 563.5 36.0Q488 -7 394 -7Q297 -7 218.0 38.5Q139 84 93.5 165.5Q48 247 48 350Q48 453 93.5 534.5Q139 616 218.0 661.5Q297 707 394 707Q506 707 590.0 651.0Q674 595 712 495Z" transform="translate(581.79,532) scale(0.02550,-0.02550)" fill="#adadad"/><path d="M599 699V0H529V327H150V0H80V699H150V385H529V699Z" transform="translate(607.93,532) scale(0.02550,-0.02550)" fill="#adadad"/><path d="M489 699V641H295V0H225V641H30V699Z" transform="translate(631.44,532) scale(0.02550,-0.02550)" fill="#adadad"/><path d="M150 642V381H415V323H150V58H445V0H80V700H445V642Z" transform="translate(650.90,532) scale(0.02550,-0.02550)" fill="#adadad"/><path d="M452 0 279 292H150V0H80V699H290Q407 699 467.5 643.0Q528 587 528 496Q528 420 484.5 366.5Q441 313 356 297L536 0ZM150 349H291Q373 349 414.5 389.0Q456 429 456 496Q456 565 416.0 602.5Q376 640 290 640H150Z" transform="translate(669.93,532) scale(0.02550,-0.02550)" fill="#adadad"/></svg>